<?xml version="1.0" encoding="utf-8"?>
<!-- Generator: Adobe Illustrator 21.1.0, SVG Export Plug-In . SVG Version: 6.00 Build 0)  -->
<svg version="1.1"
	 id="svg4619" inkscape:version="0.48.2 r9819" sodipodi:docname="religious-christian-18.svg" xmlns:cc="http://creativecommons.org/ns#" xmlns:dc="http://purl.org/dc/elements/1.1/" xmlns:inkscape="http://www.inkscape.org/namespaces/inkscape" xmlns:rdf="http://www.w3.org/1999/02/22-rdf-syntax-ns#" xmlns:sodipodi="http://sodipodi.sourceforge.net/DTD/sodipodi-0.dtd" xmlns:svg="http://www.w3.org/2000/svg"
	 xmlns="http://www.w3.org/2000/svg" xmlns:xlink="http://www.w3.org/1999/xlink" x="0px" y="0px" viewBox="0 0 18 18"
	 style="enable-background:new 0 0 18 18;" xml:space="preserve">
<style type="text/css">
	.st0{opacity:0.8;fill:#FFFFFF;stroke:#FFFFFF;stroke-width:3;stroke-linejoin:round;stroke-miterlimit:10;}
	.st1{fill:#C18694;}
</style>
<path class="st0" d="M10,3C6.6,3,4,5.6,4,9s2.6,6,6,6c1.9,0,3.9-0.6,5-2c-0.7,0.5-2.1,1-3,1c-2.6,0-4.5-2.5-4.5-5.1
	C7.5,6.3,9.4,4,12,4c0.9,0,2.3,0.5,3,1C13.9,3.6,11.9,3,10,3z"/>
<path class="st1" d="M10,3C6.6,3,4,5.6,4,9s2.6,6,6,6c1.9,0,3.9-0.6,5-2c-0.7,0.5-2.1,1-3,1c-2.6,0-4.5-2.5-4.5-5.1
	C7.5,6.3,9.4,4,12,4c0.9,0,2.3,0.5,3,1C13.9,3.6,11.9,3,10,3z"/>
</svg>
