<?xml version="1.0" encoding="utf-8"?>
<!-- Generator: Adobe Illustrator 21.1.0, SVG Export Plug-In . SVG Version: 6.00 Build 0)  -->
<svg version="1.1"
	 id="svg4764" inkscape:version="0.48.2 r9819" sodipodi:docname="religious-christian-12.svg" xmlns:cc="http://creativecommons.org/ns#" xmlns:dc="http://purl.org/dc/elements/1.1/" xmlns:inkscape="http://www.inkscape.org/namespaces/inkscape" xmlns:rdf="http://www.w3.org/1999/02/22-rdf-syntax-ns#" xmlns:sodipodi="http://sodipodi.sourceforge.net/DTD/sodipodi-0.dtd" xmlns:svg="http://www.w3.org/2000/svg"
	 xmlns="http://www.w3.org/2000/svg" xmlns:xlink="http://www.w3.org/1999/xlink" x="0px" y="0px" viewBox="0 0 12 12"
	 style="enable-background:new 0 0 12 12;" xml:space="preserve">
<style type="text/css">
	.st0{opacity:0.8;fill:#FFFFFF;stroke:#FFFFFF;stroke-width:3;stroke-linejoin:round;stroke-miterlimit:10;}
	.st1{fill:#C18694;}
</style>
<path class="st0" d="M6,2C3.8,2,2,3.8,2,6s1.8,4,4,4c0.7,0,1.4-0.2,2-0.5c-0.2,0-0.3,0-0.5,0C5.6,9.5,4,7.9,4,6s1.6-3.5,3.5-3.5
	c0.2,0,0.3,0,0.5,0C7.3,2.2,6.8,2,6,2z"/>
<path class="st1" d="M6,2C3.8,2,2,3.8,2,6s1.8,4,4,4c0.7,0,1.4-0.2,2-0.5c-0.2,0-0.3,0-0.5,0C5.6,9.5,4,7.9,4,6s1.6-3.5,3.5-3.5
	c0.2,0,0.3,0,0.5,0C7.3,2.2,6.8,2,6,2z"/>
</svg>
