<?xml version="1.0" encoding="utf-8"?>
<!-- Generator: Adobe Illustrator 21.1.0, SVG Export Plug-In . SVG Version: 6.00 Build 0)  -->
<svg version="1.1"
	 id="svg4460" inkscape:version="0.48.2 r9819" sodipodi:docname="religious-christian-24.svg" xmlns:cc="http://creativecommons.org/ns#" xmlns:dc="http://purl.org/dc/elements/1.1/" xmlns:inkscape="http://www.inkscape.org/namespaces/inkscape" xmlns:rdf="http://www.w3.org/1999/02/22-rdf-syntax-ns#" xmlns:sodipodi="http://sodipodi.sourceforge.net/DTD/sodipodi-0.dtd" xmlns:svg="http://www.w3.org/2000/svg"
	 xmlns="http://www.w3.org/2000/svg" xmlns:xlink="http://www.w3.org/1999/xlink" x="0px" y="0px" viewBox="0 0 24 24"
	 style="enable-background:new 0 0 24 24;" xml:space="preserve">
<style type="text/css">
	.st0{opacity:0.8;fill:#FFFFFF;stroke:#FFFFFF;stroke-width:4;stroke-linejoin:round;stroke-miterlimit:10;}
	.st1{fill:#C18694;}
</style>
<path class="st0" d="M12.5,3C7.8,3,4,6.8,4,11.5S7.8,20,12.5,20c2.6,0,5-1.2,6.5-3.1c-1,0.7-2.2,1.1-3.5,1.1C11.9,18,9,15.1,9,11.5
	S11.9,5,15.5,5C16.8,5,18,5.4,19,6.1C17.5,4.2,15.1,3,12.5,3z"/>
<path class="st1" d="M12.5,3C7.8,3,4,6.8,4,11.5S7.8,20,12.5,20c2.6,0,5-1.2,6.5-3.1c-1,0.7-2.2,1.1-3.5,1.1C11.9,18,9,15.1,9,11.5
	S11.9,5,15.5,5C16.8,5,18,5.4,19,6.1C17.5,4.2,15.1,3,12.5,3z"/>
</svg>
